<svg width="40" height="40" viewBox="0 0 40 40" fill="none" xmlns="http://www.w3.org/2000/svg">
<path d="M20 23.0986L35.3201 38.4906C36.1487 39.3231 37.4962 39.3231 38.3248 38.4906C39.1479 37.6637 39.1479 36.327 38.3248 35.5L22.9907 20.0939L38.5117 4.5C39.3348 3.67304 39.3348 2.33635 38.5117 1.50938C37.6831 0.67692 36.3356 0.67692 35.507 1.50938L20 17.0892L4.49299 1.50938C3.66441 0.67692 2.3169 0.676921 1.48832 1.50938C0.66522 2.33635 0.66522 3.67304 1.48832 4.50001L17.0093 20.0939L1.67524 35.5C0.852135 36.327 0.852137 37.6637 1.67524 38.4906C2.50381 39.3231 3.85133 39.3231 4.6799 38.4906L20 23.0986Z" fill="white"/>
</svg>
