<svg width="42" height="36" viewBox="0 0 42 36" fill="none" xmlns="http://www.w3.org/2000/svg">
<path d="M13.2306 28.4633L2.47136 34.2136C1.80522 34.5696 1 34.087 1 33.3317V7.35592C1 6.96769 1.22471 6.61454 1.57638 6.45008L13.2306 1M13.2306 28.4633L28.8195 35M13.2306 28.4633V1M28.8195 35L40.4729 28.7462C40.7975 28.572 41 28.2334 41 27.865V2.57434C41 1.84168 40.2381 1.35775 39.575 1.66916L28.8195 6.71963M28.8195 35V6.71963M28.8195 6.71963L13.2306 1" stroke="white"/>
<path fill-rule="evenodd" clip-rule="evenodd" d="M24.4765 13C25.6481 13 26.3799 14.2532 25.7933 15.2549L21.3944 22.7656C21.211 23.0788 20.753 23.078 20.5706 22.7642L16.2042 15.2505C15.622 14.2488 16.3542 13 17.5235 13H24.4765ZM20.7436 21.7476C20.7436 21.8497 20.6085 21.8861 20.5572 21.7978L16.6165 15.0168C16.2162 14.3281 16.7196 13.4695 17.5235 13.4695H20.7436V21.7476ZM21.219 21.7587C21.219 21.8607 21.3538 21.8973 21.4053 21.8093L25.3818 15.0198C25.7851 14.3311 25.282 13.4695 24.4765 13.4695H21.219V21.7587Z" fill="white" stroke="white" stroke-width="0.5"/>
</svg>
