<svg width="20" height="20" viewBox="0 0 20 20" fill="none" xmlns="http://www.w3.org/2000/svg">
<path fill-rule="evenodd" clip-rule="evenodd" d="M13.1345 12.5167C15.5387 9.79376 15.4389 5.63431 12.8352 3.0306C10.1277 0.323134 5.73806 0.323134 3.0306 3.0306C0.323134 5.73806 0.323134 10.1277 3.0306 12.8352C5.63431 15.4389 9.79376 15.5387 12.5167 13.1345L18.3822 19L19 18.3822L13.1345 12.5167ZM12.4188 3.4201C14.8963 5.89761 14.8963 9.91446 12.4188 12.392C9.94132 14.8695 5.92447 14.8695 3.44696 12.392C0.969443 9.91446 0.969443 5.89761 3.44696 3.4201C5.92447 0.94258 9.94132 0.942581 12.4188 3.4201Z" fill="white" fill-opacity="0.5"/>
<path d="M18.2761 19.1061L18.3822 19.2121L18.4882 19.1061L19.1061 18.4882L19.2121 18.3822L19.1061 18.2761L13.3393 12.5093C15.7002 9.72638 15.5676 5.55084 12.9413 2.92453C10.1752 0.158489 5.69057 0.15849 2.92453 2.92453C0.158489 5.69058 0.158489 10.1752 2.92453 12.9413C5.55084 15.5676 9.72638 15.7002 12.5093 13.3393L18.2761 19.1061ZM12.3128 3.52616C14.7317 5.9451 14.7317 9.86697 12.3128 12.2859C9.89383 14.7048 5.97196 14.7048 3.55302 12.2859C1.13409 9.86697 1.13409 5.9451 3.55302 3.52616C5.97196 1.10722 9.89383 1.10723 12.3128 3.52616Z" stroke="white" stroke-opacity="0.5" stroke-width="0.3"/>
</svg>
