<svg width="20" height="20" viewBox="0 0 20 20" fill="none" xmlns="http://www.w3.org/2000/svg">
<path fill-rule="evenodd" clip-rule="evenodd" d="M18.8594 1.01507C18.9233 0.973023 19.0069 1.02446 18.9996 1.10137L17.4459 17.4788C17.44 17.5409 17.3763 17.5794 17.3197 17.555L11.5 15.048C11.4576 15.0297 11.4085 15.0465 11.3855 15.087L9.19361 18.9537C9.153 19.0253 9.04714 19.0109 9.0266 18.9309L7.60665 13.4005C7.59676 13.362 7.56363 13.3342 7.52446 13.3316L1.08524 12.9068C0.997801 12.901 0.968097 12.7856 1.04161 12.7372L18.8594 1.01507ZM7.88001 13.212C7.85671 13.2352 7.84742 13.2692 7.85564 13.3012L9.08392 18.0851C9.10616 18.1717 9.22471 18.1787 9.25681 18.0954L10.6518 14.4727C10.6536 14.468 10.6558 14.4634 10.6584 14.4591L15.9404 5.45428C15.9949 5.36136 15.8746 5.26546 15.7984 5.34114L7.88001 13.212ZM10.341 16.0206C10.3 16.127 10.4486 16.1993 10.5047 16.1002L11.1387 14.9818C11.1644 14.9365 11.148 14.8787 11.1025 14.8542L10.9341 14.7635C10.886 14.7376 10.8264 14.76 10.8066 14.8115L10.341 16.0206ZM11.0087 14.389C10.9821 14.4343 10.9983 14.493 11.0442 14.5177L11.4265 14.7236L17.09 17.1633C17.1466 17.1877 17.2103 17.1493 17.2162 17.0871L18.6824 1.63117C18.6897 1.55426 18.6062 1.50282 18.5423 1.54487L1.85827 12.5211C1.78475 12.5695 1.81446 12.6849 1.9019 12.6907L7.60327 13.0669C7.62909 13.0686 7.65441 13.059 7.67289 13.0407L16.7841 3.98424C16.8167 3.95177 16.8681 3.94893 16.904 3.97759L16.9854 4.04248C17.0214 4.07114 17.0308 4.1224 17.0074 4.16227L11.0087 14.389Z" fill="white" stroke="white" stroke-width="0.5"/>
</svg>
