<svg width="20" height="20" viewBox="0 0 20 20" fill="none" xmlns="http://www.w3.org/2000/svg">
<path fill-rule="evenodd" clip-rule="evenodd" d="M16.2576 1C18.3666 1 19.6839 3.25581 18.6279 5.05887L10.71 18.578C10.3798 19.1418 9.55539 19.1404 9.22715 18.5756L1.36748 5.05098C0.31965 3.24792 1.63748 1 3.74234 1H16.2576ZM9.53855 17.0425C9.53855 17.1447 9.40342 17.1811 9.35209 17.0928L2.10962 4.63023C1.38924 3.39063 2.29525 1.84519 3.74234 1.84519H9.53855V17.0425ZM10.3943 17.0606C10.3943 17.1626 10.529 17.1991 10.5806 17.1111L17.8872 4.63566C18.6132 3.39605 17.7075 1.84519 16.2576 1.84519H10.3943V17.0606Z" fill="white" stroke="white"/>
</svg>
