<svg width="198" height="18" viewBox="0 0 198 18" fill="none" xmlns="http://www.w3.org/2000/svg">
<path d="M0 0H198V17.9688H0V0Z" fill="#303443"/>
<path d="M14.4445 14.8438V6.4375H17.8765V14.8438H14.4445ZM16.1605 5.26562C15.5299 5.26562 15.0165 5.13542 14.6205 4.875C14.2245 4.61458 14.0265 4.29167 14.0265 3.90625C14.0265 3.52083 14.2245 3.19792 14.6205 2.9375C15.0165 2.67708 15.5299 2.54687 16.1605 2.54687C16.7912 2.54687 17.3045 2.67187 17.7005 2.92188C18.0965 3.16146 18.2945 3.47396 18.2945 3.85938C18.2945 4.26562 18.0965 4.60417 17.7005 4.875C17.3192 5.13542 16.8059 5.26562 16.1605 5.26562Z" fill="url(#paint0_linear_303_402)"/>
<path d="M28.2557 6.3125C29.1944 6.3125 30.0304 6.44792 30.7637 6.71875C31.5117 6.97917 32.0984 7.38542 32.5237 7.9375C32.9491 8.47917 33.1617 9.17708 33.1617 10.0312V14.8438H29.7297V10.4062C29.7297 9.72917 29.5171 9.22917 29.0917 8.90625C28.6811 8.58333 28.0944 8.42188 27.3317 8.42188C26.7891 8.42188 26.2977 8.50521 25.8577 8.67188C25.4324 8.82812 25.0951 9.07292 24.8457 9.40625C24.6111 9.73958 24.4937 10.1667 24.4937 10.6875V14.8438H21.0617V6.4375H24.3397V8.76562L23.7237 8.0625C24.1491 7.5 24.7577 7.06771 25.5497 6.76563C26.3417 6.46354 27.2437 6.3125 28.2557 6.3125Z" fill="url(#paint1_linear_303_402)"/>
<path d="M40.2547 14.9688C39.2427 14.9688 38.2673 14.8854 37.3287 14.7188C36.4047 14.5417 35.6713 14.3229 35.1287 14.0625L36.2727 12.3125C36.8153 12.5521 37.4533 12.75 38.1867 12.9063C38.9347 13.0521 39.668 13.125 40.3867 13.125C41.1787 13.125 41.736 13.0573 42.0587 12.9219C42.396 12.7865 42.5647 12.599 42.5647 12.3594C42.5647 12.1615 42.4327 12.0156 42.1687 11.9219C41.9193 11.8177 41.582 11.7396 41.1567 11.6875C40.7313 11.6354 40.262 11.5833 39.7487 11.5312C39.25 11.4792 38.744 11.4115 38.2307 11.3281C37.7173 11.2344 37.248 11.099 36.8227 10.9219C36.3973 10.7448 36.0527 10.5052 35.7887 10.2031C35.5393 9.90104 35.4147 9.51042 35.4147 9.03125C35.4147 8.5 35.6273 8.03125 36.0527 7.625C36.4927 7.21875 37.1233 6.90104 37.9447 6.67188C38.766 6.43229 39.7487 6.3125 40.8927 6.3125C41.6993 6.3125 42.5207 6.375 43.3567 6.5C44.1927 6.625 44.8893 6.80729 45.4467 7.04688L44.3027 8.78125C43.7307 8.54167 43.1513 8.38021 42.5647 8.29687C41.9927 8.20312 41.4353 8.15625 40.8927 8.15625C40.13 8.15625 39.5727 8.22917 39.2207 8.375C38.8687 8.52083 38.6927 8.70833 38.6927 8.9375C38.6927 9.14583 38.8173 9.30208 39.0667 9.40625C39.3307 9.51042 39.6753 9.59375 40.1007 9.65625C40.526 9.71875 40.988 9.77604 41.4867 9.82812C42 9.86979 42.5133 9.9375 43.0267 10.0312C43.54 10.125 44.002 10.2604 44.4127 10.4375C44.838 10.6042 45.1827 10.8385 45.4467 11.1406C45.7107 11.4323 45.8427 11.8177 45.8427 12.2969C45.8427 12.8177 45.6227 13.2813 45.1827 13.6875C44.7427 14.0833 44.1047 14.3958 43.2687 14.625C42.4473 14.8542 41.4427 14.9688 40.2547 14.9688Z" fill="url(#paint2_linear_303_402)"/>
<path d="M52.8002 14.9688C51.4068 14.9688 50.3215 14.7188 49.5442 14.2188C48.7668 13.7083 48.3782 12.9531 48.3782 11.9531V4.57812H51.8102V11.9219C51.8102 12.276 51.9422 12.5521 52.2062 12.75C52.4702 12.9375 52.8295 13.0313 53.2842 13.0313C53.8268 13.0313 54.2888 12.9271 54.6702 12.7188L55.5942 14.4375C55.2422 14.6146 54.8168 14.75 54.3182 14.8438C53.8342 14.9271 53.3282 14.9688 52.8002 14.9688ZM46.5522 8.5V6.625H54.7582V8.5H46.5522Z" fill="url(#paint3_linear_303_402)"/>
<path d="M64.7807 14.8438V13.2031L64.5607 12.8438V9.90625C64.5607 9.38542 64.3334 8.97917 63.8787 8.6875C63.4387 8.39583 62.7567 8.25 61.8327 8.25C61.2021 8.25 60.5787 8.32292 59.9627 8.46875C59.3614 8.60417 58.848 8.79167 58.4227 9.03125L57.1907 7.32812C57.8361 7.00521 58.6134 6.75521 59.5227 6.57812C60.432 6.40104 61.356 6.3125 62.2947 6.3125C64.0987 6.3125 65.4994 6.61458 66.4967 7.21875C67.494 7.82292 67.9927 8.76562 67.9927 10.0469V14.8438H64.7807ZM61.1727 14.9688C60.2487 14.9688 59.4567 14.8594 58.7967 14.6406C58.1367 14.4115 57.6307 14.1042 57.2787 13.7188C56.9267 13.3333 56.7507 12.901 56.7507 12.4219C56.7507 11.9219 56.9194 11.4844 57.2567 11.1094C57.6087 10.7344 58.1587 10.4427 58.9067 10.2344C59.6547 10.0156 60.6301 9.90625 61.8327 9.90625H64.9787V11.3281H62.2067C61.4001 11.3281 60.8427 11.4219 60.5347 11.6094C60.2414 11.7969 60.0947 12.0313 60.0947 12.3125C60.0947 12.625 60.2634 12.875 60.6007 13.0625C60.9527 13.2396 61.4294 13.3281 62.0307 13.3281C62.6027 13.3281 63.1161 13.2344 63.5707 13.0469C64.0254 12.849 64.3554 12.5625 64.5607 12.1875L65.0887 13.3125C64.8394 13.8542 64.3847 14.2656 63.7247 14.5469C63.0647 14.8281 62.2141 14.9688 61.1727 14.9688Z" fill="url(#paint4_linear_303_402)"/>
<path d="M76.7508 18C75.6361 18 74.5581 17.901 73.5168 17.7031C72.4901 17.5156 71.6321 17.2292 70.9428 16.8438L72.3068 15.0938C72.8054 15.3854 73.4361 15.6146 74.1988 15.7813C74.9761 15.9583 75.7388 16.0469 76.4868 16.0469C77.7041 16.0469 78.5841 15.8542 79.1268 15.4688C79.6841 15.0833 79.9628 14.5104 79.9628 13.75V12.4844L80.1828 10.375L80.1388 8.25V6.4375H83.3948V13.4375C83.3948 15 82.8228 16.151 81.6788 16.8906C80.5348 17.6302 78.8921 18 76.7508 18ZM76.2228 14.4375C75.1228 14.4375 74.1255 14.2708 73.2308 13.9375C72.3508 13.5938 71.6395 13.1198 71.0968 12.5156C70.5688 11.901 70.3048 11.1875 70.3048 10.375C70.3048 9.55208 70.5688 8.83854 71.0968 8.23438C71.6395 7.61979 72.3508 7.14583 73.2308 6.8125C74.1255 6.47917 75.1228 6.3125 76.2228 6.3125C77.2201 6.3125 78.1001 6.45833 78.8628 6.75C79.6254 7.03125 80.2195 7.47396 80.6448 8.07812C81.0701 8.67188 81.2828 9.4375 81.2828 10.375C81.2828 11.3021 81.0701 12.0677 80.6448 12.6719C80.2195 13.2656 79.6254 13.7083 78.8628 14C78.1001 14.2917 77.2201 14.4375 76.2228 14.4375ZM76.9048 12.4375C77.5061 12.4375 78.0415 12.3542 78.5108 12.1875C78.9801 12.0104 79.3468 11.7656 79.6108 11.4531C79.8748 11.1406 80.0068 10.7812 80.0068 10.375C80.0068 9.95833 79.8748 9.59896 79.6108 9.29688C79.3468 8.98438 78.9801 8.74479 78.5108 8.57812C78.0415 8.40104 77.5061 8.3125 76.9048 8.3125C76.3035 8.3125 75.7681 8.40104 75.2988 8.57812C74.8294 8.74479 74.4555 8.98438 74.1768 9.29688C73.9128 9.59896 73.7808 9.95833 73.7808 10.375C73.7808 10.7812 73.9128 11.1406 74.1768 11.4531C74.4555 11.7656 74.8294 12.0104 75.2988 12.1875C75.7681 12.3542 76.3035 12.4375 76.9048 12.4375Z" fill="url(#paint5_linear_303_402)"/>
<path d="M86.5891 14.8438V6.4375H89.8671V8.8125L89.4051 8.125C89.7571 7.53125 90.3217 7.08333 91.0991 6.78125C91.8764 6.46875 92.8224 6.3125 93.9371 6.3125V8.5625C93.7904 8.55208 93.6584 8.54688 93.5411 8.54688C93.4238 8.53646 93.2991 8.53125 93.1671 8.53125C92.2284 8.53125 91.4658 8.72396 90.8791 9.10938C90.3071 9.48438 90.0211 10.0729 90.0211 10.875V14.8438H86.5891Z" fill="url(#paint6_linear_303_402)"/>
<path d="M102.464 14.8438V13.2031L102.244 12.8438V9.90625C102.244 9.38542 102.017 8.97917 101.562 8.6875C101.122 8.39583 100.44 8.25 99.5163 8.25C98.8856 8.25 98.2623 8.32292 97.6463 8.46875C97.045 8.60417 96.5317 8.79167 96.1063 9.03125L94.8743 7.32812C95.5196 7.00521 96.297 6.75521 97.2063 6.57812C98.1156 6.40104 99.0396 6.3125 99.9783 6.3125C101.782 6.3125 103.183 6.61458 104.18 7.21875C105.178 7.82292 105.676 8.76562 105.676 10.0469V14.8438H102.464ZM98.8563 14.9688C97.9323 14.9688 97.1403 14.8594 96.4803 14.6406C95.8203 14.4115 95.3143 14.1042 94.9623 13.7188C94.6103 13.3333 94.4343 12.901 94.4343 12.4219C94.4343 11.9219 94.603 11.4844 94.9403 11.1094C95.2923 10.7344 95.8423 10.4427 96.5903 10.2344C97.3383 10.0156 98.3136 9.90625 99.5163 9.90625H102.662V11.3281H99.8903C99.0836 11.3281 98.5263 11.4219 98.2183 11.6094C97.925 11.7969 97.7783 12.0313 97.7783 12.3125C97.7783 12.625 97.947 12.875 98.2843 13.0625C98.6363 13.2396 99.113 13.3281 99.7143 13.3281C100.286 13.3281 100.8 13.2344 101.254 13.0469C101.709 12.849 102.039 12.5625 102.244 12.1875L102.772 13.3125C102.523 13.8542 102.068 14.2656 101.408 14.5469C100.748 14.8281 99.8976 14.9688 98.8563 14.9688Z" fill="url(#paint7_linear_303_402)"/>
<path d="M123.94 6.3125C124.879 6.3125 125.708 6.44792 126.426 6.71875C127.16 6.97917 127.732 7.38542 128.142 7.9375C128.568 8.47917 128.78 9.17708 128.78 10.0312V14.8438H125.348V10.4062C125.348 9.72917 125.15 9.22917 124.754 8.90625C124.358 8.58333 123.801 8.42188 123.082 8.42188C122.584 8.42188 122.136 8.50521 121.74 8.67188C121.344 8.82812 121.036 9.06771 120.816 9.39062C120.596 9.71354 120.486 10.125 120.486 10.625V14.8438H117.054V10.4062C117.054 9.72917 116.856 9.22917 116.46 8.90625C116.079 8.58333 115.529 8.42188 114.81 8.42188C114.312 8.42188 113.864 8.50521 113.468 8.67188C113.072 8.82812 112.764 9.06771 112.544 9.39062C112.324 9.71354 112.214 10.125 112.214 10.625V14.8438H108.782V6.4375H112.06V8.73438L111.444 8.0625C111.855 7.48958 112.434 7.05729 113.182 6.76563C113.945 6.46354 114.81 6.3125 115.778 6.3125C116.864 6.3125 117.81 6.51042 118.616 6.90625C119.438 7.29167 119.98 7.88542 120.244 8.6875L119.034 8.45312C119.43 7.79687 120.061 7.27604 120.926 6.89062C121.806 6.50521 122.811 6.3125 123.94 6.3125Z" fill="url(#paint8_linear_303_402)"/>
<path d="M133.155 14.9688C132.568 14.9688 132.062 14.8281 131.637 14.5469C131.226 14.2552 131.021 13.8854 131.021 13.4375C131.021 12.9896 131.226 12.6302 131.637 12.3594C132.062 12.0781 132.568 11.9375 133.155 11.9375C133.756 11.9375 134.262 12.0781 134.673 12.3594C135.083 12.6302 135.289 12.9896 135.289 13.4375C135.289 13.8854 135.083 14.2552 134.673 14.5469C134.262 14.8281 133.756 14.9688 133.155 14.9688Z" fill="url(#paint9_linear_303_402)"/>
<path d="M143.206 14.9688C141.93 14.9688 140.793 14.7865 139.796 14.4219C138.798 14.0469 138.014 13.5312 137.442 12.875C136.884 12.2188 136.606 11.474 136.606 10.6406C136.606 9.79688 136.884 9.05208 137.442 8.40625C138.014 7.75 138.798 7.23958 139.796 6.875C140.793 6.5 141.93 6.3125 143.206 6.3125C144.452 6.3125 145.538 6.5 146.462 6.875C147.386 7.23958 148.068 7.76562 148.508 8.45312L145.846 9.46875C145.538 9.07292 145.149 8.78125 144.68 8.59375C144.225 8.40625 143.726 8.3125 143.184 8.3125C142.597 8.3125 142.069 8.40625 141.6 8.59375C141.13 8.78125 140.756 9.04688 140.478 9.39062C140.214 9.73438 140.082 10.151 140.082 10.6406C140.082 11.1302 140.214 11.5469 140.478 11.8906C140.756 12.2344 141.13 12.5 141.6 12.6875C142.069 12.875 142.597 12.9688 143.184 12.9688C143.726 12.9688 144.225 12.8802 144.68 12.7031C145.149 12.5156 145.538 12.2188 145.846 11.8125L148.508 12.8438C148.068 13.5208 147.386 14.0469 146.462 14.4219C145.538 14.7865 144.452 14.9688 143.206 14.9688Z" fill="url(#paint10_linear_303_402)"/>
<path d="M155.965 14.9688C154.704 14.9688 153.582 14.7813 152.599 14.4063C151.631 14.0313 150.861 13.5208 150.289 12.875C149.732 12.2188 149.453 11.474 149.453 10.6406C149.453 9.79688 149.732 9.05208 150.289 8.40625C150.861 7.75 151.631 7.23958 152.599 6.875C153.582 6.5 154.704 6.3125 155.965 6.3125C157.212 6.3125 158.327 6.5 159.309 6.875C160.292 7.23958 161.062 7.74479 161.619 8.39062C162.177 9.03646 162.455 9.78646 162.455 10.6406C162.455 11.474 162.177 12.2188 161.619 12.875C161.062 13.5208 160.292 14.0313 159.309 14.4063C158.327 14.7813 157.212 14.9688 155.965 14.9688ZM155.965 12.9688C156.537 12.9688 157.051 12.875 157.505 12.6875C157.96 12.5 158.319 12.2344 158.583 11.8906C158.847 11.5365 158.979 11.1198 158.979 10.6406C158.979 10.151 158.847 9.73438 158.583 9.39062C158.319 9.04688 157.96 8.78125 157.505 8.59375C157.051 8.40625 156.537 8.3125 155.965 8.3125C155.393 8.3125 154.88 8.40625 154.425 8.59375C153.971 8.78125 153.604 9.04688 153.325 9.39062C153.061 9.73438 152.929 10.151 152.929 10.6406C152.929 11.1198 153.061 11.5365 153.325 11.8906C153.604 12.2344 153.971 12.5 154.425 12.6875C154.88 12.875 155.393 12.9688 155.965 12.9688Z" fill="url(#paint11_linear_303_402)"/>
<path d="M179.907 6.3125C180.846 6.3125 181.675 6.44792 182.393 6.71875C183.127 6.97917 183.699 7.38542 184.109 7.9375C184.535 8.47917 184.747 9.17708 184.747 10.0312V14.8438H181.315V10.4062C181.315 9.72917 181.117 9.22917 180.721 8.90625C180.325 8.58333 179.768 8.42188 179.049 8.42188C178.551 8.42188 178.103 8.50521 177.707 8.67188C177.311 8.82812 177.003 9.06771 176.783 9.39062C176.563 9.71354 176.453 10.125 176.453 10.625V14.8438H173.021V10.4062C173.021 9.72917 172.823 9.22917 172.427 8.90625C172.046 8.58333 171.496 8.42188 170.777 8.42188C170.279 8.42188 169.831 8.50521 169.435 8.67188C169.039 8.82812 168.731 9.06771 168.511 9.39062C168.291 9.71354 168.181 10.125 168.181 10.625V14.8438H164.749V6.4375H168.027V8.73438L167.411 8.0625C167.822 7.48958 168.401 7.05729 169.149 6.76563C169.912 6.46354 170.777 6.3125 171.745 6.3125C172.831 6.3125 173.777 6.51042 174.583 6.90625C175.405 7.29167 175.947 7.88542 176.211 8.6875L175.001 8.45312C175.397 7.79687 176.028 7.27604 176.893 6.89062C177.773 6.50521 178.778 6.3125 179.907 6.3125Z" fill="url(#paint12_linear_303_402)"/>
<defs>
<linearGradient id="paint0_linear_303_402" x1="3.3" y1="7.81251" x2="197.976" y2="10.9097" gradientUnits="userSpaceOnUse">
<stop stop-color="#FF0000"/>
<stop offset="0.479167" stop-color="#FFE600"/>
<stop offset="1" stop-color="#001AFF"/>
</linearGradient>
<linearGradient id="paint1_linear_303_402" x1="3.3" y1="7.81251" x2="197.976" y2="10.9097" gradientUnits="userSpaceOnUse">
<stop stop-color="#FF0000"/>
<stop offset="0.479167" stop-color="#FFE600"/>
<stop offset="1" stop-color="#001AFF"/>
</linearGradient>
<linearGradient id="paint2_linear_303_402" x1="3.3" y1="7.81251" x2="197.976" y2="10.9097" gradientUnits="userSpaceOnUse">
<stop stop-color="#FF0000"/>
<stop offset="0.479167" stop-color="#FFE600"/>
<stop offset="1" stop-color="#001AFF"/>
</linearGradient>
<linearGradient id="paint3_linear_303_402" x1="3.3" y1="7.81251" x2="197.976" y2="10.9097" gradientUnits="userSpaceOnUse">
<stop stop-color="#FF0000"/>
<stop offset="0.479167" stop-color="#FFE600"/>
<stop offset="1" stop-color="#001AFF"/>
</linearGradient>
<linearGradient id="paint4_linear_303_402" x1="3.3" y1="7.81251" x2="197.976" y2="10.9097" gradientUnits="userSpaceOnUse">
<stop stop-color="#FF0000"/>
<stop offset="0.479167" stop-color="#FFE600"/>
<stop offset="1" stop-color="#001AFF"/>
</linearGradient>
<linearGradient id="paint5_linear_303_402" x1="3.3" y1="7.81251" x2="197.976" y2="10.9097" gradientUnits="userSpaceOnUse">
<stop stop-color="#FF0000"/>
<stop offset="0.479167" stop-color="#FFE600"/>
<stop offset="1" stop-color="#001AFF"/>
</linearGradient>
<linearGradient id="paint6_linear_303_402" x1="3.3" y1="7.81251" x2="197.976" y2="10.9097" gradientUnits="userSpaceOnUse">
<stop stop-color="#FF0000"/>
<stop offset="0.479167" stop-color="#FFE600"/>
<stop offset="1" stop-color="#001AFF"/>
</linearGradient>
<linearGradient id="paint7_linear_303_402" x1="3.3" y1="7.81251" x2="197.976" y2="10.9097" gradientUnits="userSpaceOnUse">
<stop stop-color="#FF0000"/>
<stop offset="0.479167" stop-color="#FFE600"/>
<stop offset="1" stop-color="#001AFF"/>
</linearGradient>
<linearGradient id="paint8_linear_303_402" x1="3.3" y1="7.81251" x2="197.976" y2="10.9097" gradientUnits="userSpaceOnUse">
<stop stop-color="#FF0000"/>
<stop offset="0.479167" stop-color="#FFE600"/>
<stop offset="1" stop-color="#001AFF"/>
</linearGradient>
<linearGradient id="paint9_linear_303_402" x1="3.3" y1="7.81251" x2="197.976" y2="10.9097" gradientUnits="userSpaceOnUse">
<stop stop-color="#FF0000"/>
<stop offset="0.479167" stop-color="#FFE600"/>
<stop offset="1" stop-color="#001AFF"/>
</linearGradient>
<linearGradient id="paint10_linear_303_402" x1="3.3" y1="7.81251" x2="197.976" y2="10.9097" gradientUnits="userSpaceOnUse">
<stop stop-color="#FF0000"/>
<stop offset="0.479167" stop-color="#FFE600"/>
<stop offset="1" stop-color="#001AFF"/>
</linearGradient>
<linearGradient id="paint11_linear_303_402" x1="3.3" y1="7.81251" x2="197.976" y2="10.9097" gradientUnits="userSpaceOnUse">
<stop stop-color="#FF0000"/>
<stop offset="0.479167" stop-color="#FFE600"/>
<stop offset="1" stop-color="#001AFF"/>
</linearGradient>
<linearGradient id="paint12_linear_303_402" x1="3.3" y1="7.81251" x2="197.976" y2="10.9097" gradientUnits="userSpaceOnUse">
<stop stop-color="#FF0000"/>
<stop offset="0.479167" stop-color="#FFE600"/>
<stop offset="1" stop-color="#001AFF"/>
</linearGradient>
</defs>
</svg>
